<?xml version="1.0" encoding="utf-8"?>
<!-- Svg Vector Icons : http://www.onlinewebfonts.com/icon -->
<!DOCTYPE svg PUBLIC "-//W3C//DTD SVG 1.1//EN" "http://www.w3.org/Graphics/SVG/1.1/DTD/svg11.dtd">
<svg version="1.1" xmlns="http://www.w3.org/2000/svg" xmlns:xlink="http://www.w3.org/1999/xlink" x="0px" y="0px" viewBox="0 0 1000 1000" enable-background="new 0 0 1000 1000" xml:space="preserve">
<metadata> Svg Vector Icons : http://www.onlinewebfonts.com/icon </metadata>
<g><g transform="matrix(1 0 0 -1 0 1008)"><path d="M535,613V228h-70v385H535z M561.3,753c0-16.9-6-31.3-18-43.3s-26.4-18-43.3-18s-31.3,6-43.3,18c-12,12-18,26.4-18,43.3s6,31.3,18,43.3c12,12,26.4,18,43.3,18s31.3-6,43.3-18C555.3,784.3,561.3,769.9,561.3,753z M920,508c0,115.4-41.2,214.2-123.5,296.5C714.2,886.8,615.4,928,500,928s-214.2-41.2-296.5-123.5C121.2,722.2,80,623.4,80,508s41.2-214.2,123.5-296.5C285.8,129.2,384.6,88,500,88s214.2,41.2,296.5,123.5C878.8,293.8,920,392.6,920,508z M990,508c0-134.8-48-250.2-143.9-346.1S634.8,18,500,18c-134.8,0-250.2,48-346.1,143.9C58,257.8,10,373.2,10,508c0,134.8,48,250.2,143.9,346.1C249.8,950,365.2,998,500,998c134.8,0,250.2-48,346.1-143.9C942,758.2,990,642.8,990,508z"/></g></g>
</svg>